HIERARCHY
ROOT Hips
{
	OFFSET -19.934631 -33.524395 87.965111
	CHANNELS 6 Xposition Yposition Zposition Zrotation Yrotation Xrotation
	JOINT Spine
	{
		OFFSET 0.000000 2.080107 8.814247
		CHANNELS 6 Xposition Yposition Zposition Zrotation Yrotation Xrotation
		JOINT Spine1
		{
			OFFSET 0.000000 0.000000 8.844139
			CHANNELS 6 Xposition Yposition Zposition Zrotation Yrotation Xrotation
			JOINT Spine2
			{
				OFFSET 0.000000 0.000002 11.682266
				CHANNELS 6 Xposition Yposition Zposition Zrotation Yrotation Xrotation
				JOINT Spine3
				{
					OFFSET 0.000000 0.000000 11.746696
					CHANNELS 6 Xposition Yposition Zposition Zrotation Yrotation Xrotation
					JOINT Neck
					{
						OFFSET 0.000000 0.000002 17.658264
						CHANNELS 6 Xposition Yposition Zposition Zrotation Yrotation Xrotation
						JOINT Neck1
						{
							OFFSET 0.000000 0.000000 5.101517
							CHANNELS 6 Xposition Yposition Zposition Zrotation Yrotation Xrotation
							JOINT Head
							{
								OFFSET 0.000000 0.000000 5.101517
								CHANNELS 6 Xposition Yposition Zposition Zrotation Yrotation Xrotation
								JOINT HeadEnd
								{
									OFFSET 0.000000 0.000002 11.655090
									CHANNELS 6 Xposition Yposition Zposition Zrotation Yrotation Xrotation
									End Site
									{
										OFFSET 0.000000 0.000000 0.100006
									}
								}
							}
						}
					}
					JOINT RightShoulder
					{
						OFFSET -2.625389 0.000002 11.175217
						CHANNELS 6 Xposition Yposition Zposition Zrotation Yrotation Xrotation
						JOINT RightArm
						{
							OFFSET 0.000000 0.000000 10.434708
							CHANNELS 6 Xposition Yposition Zposition Zrotation Yrotation Xrotation
							JOINT RightForeArm
							{
								OFFSET 0.000000 0.000002 29.628418
								CHANNELS 6 Xposition Yposition Zposition Zrotation Yrotation Xrotation
								JOINT RightHand
								{
									OFFSET 0.000000 0.000002 22.857605
									CHANNELS 6 Xposition Yposition Zposition Zrotation Yrotation Xrotation
									JOINT RightHandThumb1
									{
										OFFSET -2.867323 -2.944292 3.959564
										CHANNELS 6 Xposition Yposition Zposition Zrotation Yrotation Xrotation
										JOINT RightHandThumb2
										{
											OFFSET 0.000000 0.000000 3.350403
											CHANNELS 6 Xposition Yposition Zposition Zrotation Yrotation Xrotation
											JOINT RightHandThumb3
											{
												OFFSET 0.000000 0.000000 3.756516
												CHANNELS 6 Xposition Yposition Zposition Zrotation Yrotation Xrotation
												JOINT RightHandThumb4
												{
													OFFSET 0.000000 0.000000 3.147339
													CHANNELS 6 Xposition Yposition Zposition Zrotation Yrotation Xrotation
													End Site
													{
														OFFSET 0.000000 0.000000 0.100006
													}
												}
											}
										}
									}
									JOINT RightHandIndex1
									{
										OFFSET -0.086752 -2.345282 10.030899
										CHANNELS 6 Xposition Yposition Zposition Zrotation Yrotation Xrotation
										JOINT RightHandIndex2
										{
											OFFSET 0.000000 0.000000 4.061096
											CHANNELS 6 Xposition Yposition Zposition Zrotation Yrotation Xrotation
											JOINT RightHandIndex3
											{
												OFFSET 0.000000 0.000000 3.248871
												CHANNELS 6 Xposition Yposition Zposition Zrotation Yrotation Xrotation
												JOINT RightHandIndex4
												{
													OFFSET 0.000000 0.000000 2.639709
													CHANNELS 6 Xposition Yposition Zposition Zrotation Yrotation Xrotation
													End Site
													{
														OFFSET 0.000000 0.000000 0.100006
													}
												}
											}
										}
									}
									JOINT RightHandMiddle1
									{
										OFFSET 0.104101 -0.006767 9.502945
										CHANNELS 6 Xposition Yposition Zposition Zrotation Yrotation Xrotation
										JOINT RightHandMiddle2
										{
											OFFSET 0.000000 0.000002 4.568726
											CHANNELS 6 Xposition Yposition Zposition Zrotation Yrotation Xrotation
											JOINT RightHandMiddle3
											{
												OFFSET 0.000000 0.000000 3.654984
												CHANNELS 6 Xposition Yposition Zposition Zrotation Yrotation Xrotation
												JOINT RightHandMiddle4
												{
													OFFSET 0.000000 0.000000 2.741241
													CHANNELS 6 Xposition Yposition Zposition Zrotation Yrotation Xrotation
													End Site
													{
														OFFSET 0.000000 0.000000 0.100006
													}
												}
											}
										}
									}
									JOINT RightHandRing1
									{
										OFFSET 0.086752 2.267443 8.921707
										CHANNELS 6 Xposition Yposition Zposition Zrotation Yrotation Xrotation
										JOINT RightHandRing2
										{
											OFFSET 0.000000 0.000002 4.061096
											CHANNELS 6 Xposition Yposition Zposition Zrotation Yrotation Xrotation
											JOINT RightHandRing3
											{
												OFFSET 0.000000 0.000000 3.654984
												CHANNELS 6 Xposition Yposition Zposition Zrotation Yrotation Xrotation
												JOINT RightHandRing4
												{
													OFFSET 0.000000 0.000000 2.741241
													CHANNELS 6 Xposition Yposition Zposition Zrotation Yrotation Xrotation
													End Site
													{
														OFFSET 0.000000 0.000000 0.100006
													}
												}
											}
										}
									}
									JOINT RightHandPinky1
									{
										OFFSET -0.173504 4.467199 7.976990
										CHANNELS 6 Xposition Yposition Zposition Zrotation Yrotation Xrotation
										JOINT RightHandPinky2
										{
											OFFSET 0.000000 0.000000 3.350403
											CHANNELS 6 Xposition Yposition Zposition Zrotation Yrotation Xrotation
											JOINT RightHandPinky3
											{
												OFFSET 0.000000 0.000002 2.842758
												CHANNELS 6 Xposition Yposition Zposition Zrotation Yrotation Xrotation
												JOINT RightHandPinky4
												{
													OFFSET 0.000000 0.000000 2.639709
													CHANNELS 6 Xposition Yposition Zposition Zrotation Yrotation Xrotation
													End Site
													{
														OFFSET 0.000000 0.000000 0.100006
													}
												}
											}
										}
									}
									JOINT RightForeArmEnd
									{
										OFFSET 0.000000 0.000000 0.000000
										CHANNELS 6 Xposition Yposition Zposition Zrotation Yrotation Xrotation
										End Site
										{
											OFFSET 0.000000 0.000000 0.100006
										}
									}
								}
								JOINT RightArmEnd
								{
									OFFSET 0.000000 0.000000 0.000000
									CHANNELS 6 Xposition Yposition Zposition Zrotation Yrotation Xrotation
									End Site
									{
										OFFSET 0.000000 0.000000 0.100006
									}
								}
							}
						}
					}
					JOINT LeftShoulder
					{
						OFFSET 2.625389 0.000002 11.175217
						CHANNELS 6 Xposition Yposition Zposition Zrotation Yrotation Xrotation
						JOINT LeftArm
						{
							OFFSET 0.000000 0.000000 10.813629
							CHANNELS 6 Xposition Yposition Zposition Zrotation Yrotation Xrotation
							JOINT LeftForeArm
							{
								OFFSET 0.000000 0.000002 28.724777
								CHANNELS 6 Xposition Yposition Zposition Zrotation Yrotation Xrotation
								JOINT LeftHand
								{
									OFFSET 0.644384 0.328873 25.716171
									CHANNELS 6 Xposition Yposition Zposition Zrotation Yrotation Xrotation
									JOINT LeftHandThumb1
									{
										OFFSET 2.867323 -2.944290 3.959564
										CHANNELS 6 Xposition Yposition Zposition Zrotation Yrotation Xrotation
										JOINT LeftHandThumb2
										{
											OFFSET 0.000000 0.000000 3.350403
											CHANNELS 6 Xposition Yposition Zposition Zrotation Yrotation Xrotation
											JOINT LeftHandThumb3
											{
												OFFSET 0.000000 0.000000 3.756516
												CHANNELS 6 Xposition Yposition Zposition Zrotation Yrotation Xrotation
												JOINT LeftHandThumb4
												{
													OFFSET 0.000000 0.000000 3.100006
													CHANNELS 6 Xposition Yposition Zposition Zrotation Yrotation Xrotation
													End Site
													{
														OFFSET 0.000000 0.000000 0.100006
													}
												}
											}
										}
									}
									JOINT LeftHandIndex1
									{
										OFFSET 0.086752 -2.345280 10.030899
										CHANNELS 6 Xposition Yposition Zposition Zrotation Yrotation Xrotation
										JOINT LeftHandIndex2
										{
											OFFSET 0.000000 0.000000 4.061096
											CHANNELS 6 Xposition Yposition Zposition Zrotation Yrotation Xrotation
											JOINT LeftHandIndex3
											{
												OFFSET 0.000000 0.000000 3.248871
												CHANNELS 6 Xposition Yposition Zposition Zrotation Yrotation Xrotation
												JOINT LeftHandIndex4
												{
													OFFSET 0.000000 0.000000 2.639709
													CHANNELS 6 Xposition Yposition Zposition Zrotation Yrotation Xrotation
													End Site
													{
														OFFSET 0.000000 0.000000 0.100006
													}
												}
											}
										}
									}
									JOINT LeftHandMiddle1
									{
										OFFSET -0.104101 -0.006765 9.502945
										CHANNELS 6 Xposition Yposition Zposition Zrotation Yrotation Xrotation
										JOINT LeftHandMiddle2
										{
											OFFSET 0.000000 0.000000 4.568726
											CHANNELS 6 Xposition Yposition Zposition Zrotation Yrotation Xrotation
											JOINT LeftHandMiddle3
											{
												OFFSET 0.000000 0.000000 3.654984
												CHANNELS 6 Xposition Yposition Zposition Zrotation Yrotation Xrotation
												JOINT LeftHandMiddle4
												{
													OFFSET 0.000000 0.000000 2.741241
													CHANNELS 6 Xposition Yposition Zposition Zrotation Yrotation Xrotation
													End Site
													{
														OFFSET 0.000000 0.000000 0.100006
													}
												}
											}
										}
									}
									JOINT LeftHandRing1
									{
										OFFSET -0.086752 2.267443 8.921707
										CHANNELS 6 Xposition Yposition Zposition Zrotation Yrotation Xrotation
										JOINT LeftHandRing2
										{
											OFFSET 0.000000 0.000002 4.061096
											CHANNELS 6 Xposition Yposition Zposition Zrotation Yrotation Xrotation
											JOINT LeftHandRing3
											{
												OFFSET 0.000000 0.000000 3.654984
												CHANNELS 6 Xposition Yposition Zposition Zrotation Yrotation Xrotation
												JOINT LeftHandRing4
												{
													OFFSET 0.000000 0.000000 2.741241
													CHANNELS 6 Xposition Yposition Zposition Zrotation Yrotation Xrotation
													End Site
													{
														OFFSET 0.000000 0.000000 0.100006
													}
												}
											}
										}
									}
									JOINT LeftHandPinky1
									{
										OFFSET 0.173504 4.467199 7.976990
										CHANNELS 6 Xposition Yposition Zposition Zrotation Yrotation Xrotation
										JOINT LeftHandPinky2
										{
											OFFSET 0.000000 0.000002 3.350403
											CHANNELS 6 Xposition Yposition Zposition Zrotation Yrotation Xrotation
											JOINT LeftHandPinky3
											{
												OFFSET 0.000000 0.000000 2.842758
												CHANNELS 6 Xposition Yposition Zposition Zrotation Yrotation Xrotation
												JOINT LeftHandPinky4
												{
													OFFSET 0.000000 0.000000 2.639709
													CHANNELS 6 Xposition Yposition Zposition Zrotation Yrotation Xrotation
													End Site
													{
														OFFSET 0.000000 0.000000 0.100006
													}
												}
											}
										}
									}
									JOINT LeftForeArmEnd
									{
										OFFSET 0.000000 0.000000 0.000000
										CHANNELS 6 Xposition Yposition Zposition Zrotation Yrotation Xrotation
										End Site
										{
											OFFSET 0.000000 0.000000 0.100006
										}
									}
								}
								JOINT LeftArmEnd
								{
									OFFSET 0.000000 0.000000 0.000000
									CHANNELS 6 Xposition Yposition Zposition Zrotation Yrotation Xrotation
									End Site
									{
										OFFSET 0.000000 0.000000 0.100006
									}
								}
							}
						}
					}
				}
			}
		}
	}
	JOINT RightUpLeg
	{
		OFFSET -11.289944 0.000000 0.000000
		CHANNELS 6 Xposition Yposition Zposition Zrotation Yrotation Xrotation
		JOINT RightLeg
		{
			OFFSET 0.000000 -0.000004 -38.200321
			CHANNELS 6 Xposition Yposition Zposition Zrotation Yrotation Xrotation
			JOINT RightFoot
			{
				OFFSET 0.000000 -0.000004 -39.900856
				CHANNELS 6 Xposition Yposition Zposition Zrotation Yrotation Xrotation
				JOINT RightToeBase
				{
					OFFSET 0.000000 -15.261639 0.000001
					CHANNELS 6 Xposition Yposition Zposition Zrotation Yrotation Xrotation
					JOINT RightToeBaseEnd
					{
						OFFSET 0.000000 -7.370708 0.000000
						CHANNELS 6 Xposition Yposition Zposition Zrotation Yrotation Xrotation
						End Site
						{
							OFFSET 0.000000 0.000000 0.100000
						}
					}
				}
				JOINT RightLegEnd
				{
					OFFSET 0.000000 0.000000 0.000000
					CHANNELS 6 Xposition Yposition Zposition Zrotation Yrotation Xrotation
					End Site
					{
						OFFSET 0.000000 0.000000 0.100000
					}
				}
			}
			JOINT RightUpLegEnd
			{
				OFFSET 0.000000 0.000000 0.000000
				CHANNELS 6 Xposition Yposition Zposition Zrotation Yrotation Xrotation
				End Site
				{
					OFFSET 0.000000 0.000000 0.099998
				}
			}
		}
	}
	JOINT LeftUpLeg
	{
		OFFSET 11.315661 0.000000 0.000000
		CHANNELS 6 Xposition Yposition Zposition Zrotation Yrotation Xrotation
		JOINT LeftLeg
		{
			OFFSET 0.000000 -0.000004 -38.200321
			CHANNELS 6 Xposition Yposition Zposition Zrotation Yrotation Xrotation
			JOINT LeftFoot
			{
				OFFSET 0.000000 -0.000004 -39.900856
				CHANNELS 6 Xposition Yposition Zposition Zrotation Yrotation Xrotation
				JOINT LeftToeBase
				{
					OFFSET 0.000000 -15.261639 0.000001
					CHANNELS 6 Xposition Yposition Zposition Zrotation Yrotation Xrotation
					JOINT LeftToeBaseEnd
					{
						OFFSET 0.000000 -7.539997 0.000000
						CHANNELS 6 Xposition Yposition Zposition Zrotation Yrotation Xrotation
						End Site
						{
							OFFSET 0.000000 0.000000 0.100000
						}
					}
				}
				JOINT LeftLegEnd
				{
					OFFSET 0.000000 0.000000 0.000000
					CHANNELS 6 Xposition Yposition Zposition Zrotation Yrotation Xrotation
					End Site
					{
						OFFSET 0.000000 0.000000 0.100000
					}
				}
			}
			JOINT LeftUpLegEnd
			{
				OFFSET 0.000000 0.000000 0.000000
				CHANNELS 6 Xposition Yposition Zposition Zrotation Yrotation Xrotation
				End Site
				{
					OFFSET 0.000000 0.000000 0.099998
				}
			}
		}
	}
}
MOTION
Frames: 2
Frame Time: 0.016667
-20.832624 -15.666862 84.627388 15.578451 8.656134 -17.798216 -0.000003 2.080104 8.814255 -1.274455 -4.990327 6.093335 0.000001 -0.000004 8.844157 -0.660335 -2.006455 3.882414 0.000002 0.000005 11.682244 -2.977978 -4.772342 13.904383 -0.000000 -0.000001 11.746680 -0.274042 -0.516397 3.548051 -0.000000 -0.000008 17.658258 14.270817 -1.865540 21.762321 -0.000004 -0.000006 5.101524 12.837885 0.718480 -2.075416 -0.000001 -0.000006 5.101530 3.060580 3.658961 -27.618082 0.000001 -0.000000 11.655090 0.000001 -0.000000 0.000000 -2.625399 -0.000002 11.175200 7.717017 -96.218931 -0.587933 -0.000014 -0.000001 10.434725 -58.581665 -34.683308 48.248832 0.000004 0.000005 29.628426 15.833195 -1.368579 39.916346 0.000002 0.000006 22.857603 15.360267 -5.056005 -14.438520 -2.867319 -2.944300 3.959546 31.623889 -17.268320 51.506586 0.000007 -0.000002 3.350413 -12.679433 8.429117 -22.889782 -0.000001 -0.000003 3.756520 -8.440125 6.403184 -15.670500 0.000003 0.000003 3.147354 -0.000002 0.000000 0.000001 -0.086754 -2.345287 10.030882 -11.775851 -16.012960 2.343518 -0.000001 -0.000001 4.061083 0.342887 -11.391078 1.621069 -0.000008 0.000001 3.248885 -0.152149 -11.391225 1.619076 -0.000001 0.000005 2.639709 -0.000001 0.000001 0.000001 0.104098 -0.006763 9.502936 -6.620636 -16.480884 -0.501591 -0.000005 -0.000000 4.568721 0.444202 -11.659197 0.622469 -0.000005 -0.000002 3.654995 -0.025173 -11.659207 0.598872 -0.000002 -0.000006 2.741257 -0.000003 0.000002 0.000001 0.086751 2.267450 8.921689 1.523776 -17.254882 -3.076823 -0.000009 0.000005 4.061076 -0.974637 -12.379787 -0.761784 -0.000004 -0.000003 3.654981 0.073024 -12.380134 -0.783286 0.000004 -0.000001 2.741257 -0.000001 0.000001 0.000000 -0.173506 4.467200 7.976976 10.330529 -16.262675 -7.670309 -0.000002 0.000000 3.350407 -1.742357 -12.254236 -2.416688 -0.000001 0.000003 2.842758 0.245249 -12.254197 -2.406322 -0.000001 0.000003 2.639709 0.000001 -0.000002 0.000001 -0.000003 0.000005 -0.000000 0.000005 -0.000000 -0.000000 -0.000001 0.000005 -0.000015 -0.000003 0.000000 0.000000 2.625405 -0.000002 11.175216 -4.271114 90.702522 2.021083 -0.000002 -0.000004 10.813629 43.988269 44.520788 67.608593 -0.000014 -0.000018 28.724751 -15.031457 0.044665 136.421854 0.644395 0.328859 25.716160 -16.096386 -34.150242 30.396282 2.867324 -2.944309 3.959573 -31.788049 23.322019 42.844250 -0.000000 -0.000001 3.350423 26.178923 -11.072173 -44.741690 -0.000001 0.000007 3.756524 17.287818 -9.935987 -30.477667 0.000008 -0.000004 3.100005 0.000001 0.000002 0.000002 0.086749 -2.345284 10.030910 2.895624 63.599621 -18.682379 0.000015 -0.000001 4.061091 -3.131796 46.348561 -8.471489 0.000001 -0.000001 3.248870 -3.631790 46.348503 -8.471485 -0.000003 0.000002 2.639709 -0.000000 -0.000001 -0.000000 -0.104090 -0.006761 9.502936 12.128977 62.167070 -5.816137 0.000010 0.000002 4.568753 -0.726903 44.760367 -2.979063 0.000037 0.000005 3.655004 -1.226909 44.760316 -2.979069 -0.000010 0.000002 2.741226 0.000001 0.000000 -0.000000 -0.086769 2.267443 8.921700 25.904753 58.591207 12.933496 0.000006 0.000002 4.061112 0.248880 42.489480 3.211656 0.000005 0.000001 3.654988 1.248879 42.489490 3.211655 0.000009 0.000001 2.741227 -0.000000 0.000002 -0.000000 0.173515 4.467194 7.976982 34.386830 50.279601 23.800726 0.000009 -0.000002 3.350396 0.958684 37.720078 8.646806 0.000008 0.000000 2.842757 2.958685 37.720102 8.646809 0.000002 0.000003 2.639694 0.000000 -0.000001 -0.000000 -0.000001 -0.000002 -0.000016 0.000001 0.000000 0.000001 -0.000000 -0.000013 0.000001 0.000002 -0.000001 -0.000003 -11.289953 -0.000014 0.000021 -13.536981 -14.316835 21.470693 -0.000002 -0.000012 -38.200321 -0.084458 0.015799 9.701771 -0.000001 -0.000004 -39.900856 -23.439544 11.272189 12.003214 -0.000004 -15.261643 0.000006 -1.224521 -0.265330 -28.824098 -0.000002 -7.370709 0.000000 0.000001 0.000001 0.000000 -0.000000 -0.000004 0.000001 0.000001 0.000001 -0.000000 -0.000001 -0.000004 -0.000000 0.000000 0.000000 0.000000 11.315655 -0.000012 0.000018 10.770402 -23.387027 -5.723891 0.000001 -0.000015 -38.200314 0.824648 -0.600447 35.929739 -0.000001 -0.000002 -39.900852 6.320094 6.344919 13.291067 0.000001 -15.261642 0.000004 1.779322 -1.073939 -28.633509 -0.000002 -7.539998 0.000000 0.000002 -0.000001 -0.000000 -0.000000 -0.000005 0.000002 0.000004 -0.000001 0.000003 0.000001 -0.000006 0.000003 0.000000 -0.000000 0.000001 
-20.821804 -15.654160 84.631836 15.726133 8.641926 -17.789581 0.000001 2.080102 8.814239 -1.276987 -4.992916 6.091346 0.000001 0.000001 8.844151 -0.662237 -2.020104 3.890794 -0.000000 0.000001 11.682263 -2.945741 -4.746582 13.916188 0.000001 -0.000001 11.746697 -0.266220 -0.507442 3.565766 0.000001 -0.000007 17.658285 14.372531 -1.915455 21.868208 0.000004 0.000000 5.101506 12.969049 0.662237 -2.025982 -0.000006 0.000003 5.101511 3.060377 3.661928 -27.636749 -0.000004 0.000004 11.655090 0.000000 -0.000000 0.000000 -2.625376 -0.000003 11.175224 7.710192 -96.198187 -0.591008 -0.000022 -0.000001 10.434711 -58.645964 -34.659894 48.309115 -0.000005 0.000007 29.628422 15.882609 -1.369921 39.896364 -0.000006 0.000002 22.857607 15.545914 -5.028971 -14.403846 -2.867317 -2.944296 3.959545 31.623906 -17.268306 51.506484 0.000000 0.000000 3.350401 -12.679394 8.429140 -22.889636 0.000001 0.000009 3.756522 -8.440160 6.403166 -15.670544 -0.000004 -0.000004 3.147340 -0.000002 -0.000000 -0.000001 -0.086761 -2.345288 10.030879 -11.777005 -16.010703 2.289810 -0.000000 0.000002 4.061121 0.342847 -11.385908 1.621220 0.000000 0.000003 3.248903 -0.152225 -11.386148 1.619779 0.000001 0.000005 2.639722 -0.000001 -0.000003 0.000003 0.104100 -0.006769 9.502933 -6.619937 -16.466208 -0.564057 -0.000004 -0.000003 4.568717 0.444158 -11.646096 0.622522 0.000000 -0.000001 3.655007 -0.025327 -11.646123 0.598997 -0.000003 -0.000002 2.741242 -0.000002 0.000001 -0.000000 0.086751 2.267440 8.921713 1.523149 -17.210881 -3.154291 -0.000001 0.000005 4.061078 -0.974369 -12.353050 -0.762160 -0.000006 0.000001 3.654998 0.073022 -12.353382 -0.782451 -0.000002 -0.000002 2.741257 -0.000001 0.000002 -0.000000 -0.173505 4.467191 7.976964 10.328392 -16.185229 -7.755220 0.000005 -0.000003 3.350419 -1.742174 -12.213729 -2.411588 0.000003 0.000005 2.842777 0.245232 -12.214992 -2.404238 0.000001 -0.000003 2.639725 -0.000002 -0.000002 -0.000003 -0.000002 -0.000005 -0.000015 -0.000004 0.000001 -0.000001 -0.000004 -0.000006 -0.000002 -0.000003 -0.000000 0.000003 2.625394 0.000001 11.175214 -4.294995 90.716127 1.983966 -0.000015 -0.000009 10.813635 44.081211 44.365456 67.628981 -0.000007 0.000002 28.724751 -15.011663 0.062505 136.460568 0.644382 0.328865 25.716187 -16.289919 -34.284780 30.606443 2.867326 -2.944311 3.959567 -31.819536 23.512477 42.584392 -0.000013 -0.000006 3.350429 26.599712 -11.071616 -45.412323 -0.000009 0.000004 3.756508 17.569996 -10.006791 -30.936092 0.000000 0.000005 3.100007 0.000002 -0.000000 -0.000002 0.086759 -2.345281 10.030903 3.102911 64.272982 -18.698568 0.000011 -0.000000 4.061094 -3.236730 46.828597 -8.615948 0.000006 -0.000001 3.248874 -3.736733 46.828638 -8.615949 0.000009 -0.000003 2.639724 0.000003 -0.000000 0.000001 -0.104097 -0.006764 9.502945 12.494215 62.768455 -5.627108 0.000031 0.000002 4.568741 -0.759579 45.201027 -3.025289 0.000060 0.000000 3.654986 -1.259588 45.201038 -3.025294 -0.000006 -0.000003 2.741241 -0.000001 0.000000 0.000001 -0.086730 2.267442 8.921705 26.366678 59.055783 13.226100 0.000025 0.000007 4.061096 0.276373 42.847501 3.252220 -0.000031 0.000001 3.654986 1.276375 42.847453 3.252221 -0.000001 -0.000001 2.741226 0.000000 -0.000002 -0.000000 0.173506 4.467199 7.976985 34.757388 50.648216 23.958490 -0.000001 0.000002 3.350405 1.011019 37.990031 8.732090 0.000007 0.000005 2.842750 3.011048 37.990742 8.732181 -0.000002 0.000003 2.639709 -0.000000 0.000000 0.000001 0.000001 -0.000001 0.000016 0.000003 0.000001 -0.000000 -0.000006 0.000002 0.000014 -0.000000 -0.000004 0.000000 -11.289946 -0.000020 -0.000000 -13.635253 -14.261309 21.467109 -0.000005 -0.000007 -38.200314 -0.086539 0.015996 9.714583 -0.000007 -0.000003 -39.900856 -23.475247 11.251015 11.998498 -0.000002 -15.261649 0.000003 -1.228019 -0.261089 -28.839497 -0.000002 -7.370712 0.000001 0.000000 0.000001 -0.000000 0.000000 -0.000009 0.000001 0.000002 0.000000 -0.000001 -0.000003 -0.000001 0.000014 0.000001 -0.000001 0.000001 11.315660 -0.000015 -0.000001 10.733238 -23.333381 -5.758070 0.000004 -0.000008 -38.200314 0.824552 -0.600197 35.913913 -0.000002 -0.000008 -39.900860 6.238103 6.292587 13.322909 -0.000002 -15.261645 0.000002 1.773888 -1.068701 -28.642779 0.000000 -7.539993 -0.000001 0.000000 -0.000000 -0.000000 0.000000 -0.000004 0.000000 0.000001 -0.000001 0.000003 -0.000001 -0.000004 -0.000004 0.000002 -0.000000 -0.000001 
